# xmcd
#
# Track frame offsets:
#	150
#	16540
#	38904
#	57347
#	78570
#	100548
#	119404
#	140412
#	160007
#	180060
#	201951
#	222411
#	242267
#	261881
#	280236
#	300642
#	321360
#
# Disc length: 4545 seconds
#
# Revision: 0
# Processed by: cddbd v1.5.2PL0 Copyright (c) Steve Scherf et al.
# Submitted via: audiograbber 1.83.01
#
DISCID=de11bf11
DTITLE=Various Artist - XMiX Chartbusters 82
DYEAR=2012
DGENRE=Pop
TTITLE0=Kirko Bangz - Drank In My Cup (Mike D Remix)
TTITLE1=Jennifer Lopez Feat. Flo Rida and Lil Jon - Goin' In
TTITLE2=Sammy Adams - Only One
TTITLE3=Usher - Scream
TTITLE4=Havana Brown Feat. Pitbull - We Run The Night
TTITLE5=One Direction - One Thing
TTITLE6=Graffiti6 - Free
TTITLE7=Outasight - Now Or Never
TTITLE8=Wisin and Yandel Feat. Jennifer Lopez - Follow The Leader
TTITLE9=Rita Ora - How We Do (Party)
TTITLE10=Linkin Park - Burn It Down
TTITLE11=Tyga Feat. Lil Wayne - Faded
TTITLE12=Hot Chelle Rae - Honestly
TTITLE13=Kip Moore - Somethin' 'Bout A Truck
TTITLE14=Luke Bryan - Drunk On You
TTITLE15=Wiz Khalifa - Work Hard, Play Hard
TTITLE16=B.o.B Feat. Taylor Swift - Both Of Us
EXTD=
EXTT0=
EXTT1=
EXTT2=
EXTT3=
EXTT4=
EXTT5=
EXTT6=
EXTT7=
EXTT8=
EXTT9=
EXTT10=
EXTT11=
EXTT12=
EXTT13=
EXTT14=
EXTT15=
EXTT16=
PLAYORDER=
